<svg xmlns="http://www.w3.org/2000/svg" viewBox="0 0 1600 900" role="img" aria-label="Elysian Fields - Hero - Versão otimizada para prévia">
  <defs>
    <linearGradient id="grad-hero" x1="0" x2="1" y1="0" y2="1">
      <stop offset="0%" stop-color="#c5a059" stop-opacity="0.9" />
      <stop offset="100%" stop-color="#e5d6b0" stop-opacity="0.85" />
    </linearGradient>
    <linearGradient id="wave-hero" x1="0" y1="0" x2="0" y2="1">
      <stop offset="0%" stop-color="#0d1d14" stop-opacity="0.9" />
      <stop offset="100%" stop-color="#1f3b2b" stop-opacity="0.9" />
    </linearGradient>
  </defs>
  <rect width="1600" height="900" fill="url(#grad-hero)" />
  <path d="M0 540 Q 280 480 520 540 T 980 540 T 1600 520 V900 H0Z" fill="#0f2418" opacity="0.75" />
  <path d="M0 620 Q 300 560 520 620 T 980 610 T 1600 600 V900 H0Z" fill="url(#wave-hero)" opacity="0.85" />
  <circle cx="1280" cy="180" r="120" fill="#f1eadb" opacity="0.35" />
  <circle cx="1360" cy="210" r="70" fill="#f7f3e9" opacity="0.28" />
  <path d="M1180 420 q40 -120 140 -80 q-40 60 -20 120 q-80 -40 -120 40" fill="#d7c39a" opacity="0.7" />
  <path d="M260 520 q60 -90 180 -60 q-40 40 -10 120 q-120 -60 -170 40" fill="#a4cf8d" opacity="0.75" />
  <rect x="220" y="300" width="26" height="220" rx="8" fill="#c5a059" />
  <polygon points="246,300 246,420 360,360" fill="#f7f3e9" opacity="0.9" />
  <circle cx="360" cy="360" r="22" fill="#ffffff" />
  <circle cx="360" cy="360" r="14" fill="#1d4f34" />
  <text x="80" y="120" fill="#0c1612" font-family="'Playfair Display', 'Georgia', serif" font-size="72" font-weight="700">Elysian Fields - Hero</text>
  <text x="80" y="180" fill="#0c1612" font-family="'Inter', 'Helvetica', sans-serif" font-size="36" font-weight="600">Versão otimizada para prévia</text>
  <text x="80" y="240" fill="#0c1612" font-family="'Inter', 'Helvetica', sans-serif" font-size="26" opacity="0.8">Visual hero gerado graficamente para evitar imagens quebradas.</text>
</svg>